<svg width="184" height="86" viewBox="0 0 184 86" fill="none" xmlns="http://www.w3.org/2000/svg">
<path d="M90.8722 41.4471L47.8056 1.4659C46.9335 0.656306 45.5196 0.656306 44.6475 1.4659L1.58093 41.4471C0.708856 42.2567 0.708856 43.5693 1.58093 44.3789L44.6475 84.3602C45.5196 85.1698 46.9335 85.1698 47.8056 84.3602L90.8722 44.3789C91.7443 43.5693 91.7443 42.2567 90.8722 41.4471Z" fill="url(#paint0_linear_2087_7)"/>
<path d="M62.4452 69.9512C57.0327 72.563 58.2478 72.4621 51.6309 72.9818C45.0136 73.501 38.3562 72.4514 32.4112 69.9512C26.4662 67.451 21.471 63.6002 17.9909 58.8346C14.5109 54.069 12.6848 48.5788 12.7192 42.9848C12.7537 37.3909 14.6473 31.9168 18.1859 27.1817C21.7245 22.4467 26.7667 18.6397 32.7422 16.1916C38.7178 13.7435 45.3879 12.752 51.9981 13.3291C58.6082 13.9063 60.2956 14.3096 65.5469 17.7379L62.4452 27.8152C59.0468 25.5967 54.9791 24.2231 50.7018 23.8496C46.4245 23.4761 42.108 24.1178 38.2413 25.7019C34.3746 27.2861 31.1118 29.7495 28.822 32.8135C26.5322 35.8775 25.3069 39.4198 25.2846 43.0397C25.2622 46.6594 26.4439 50.2121 28.6958 53.296C30.9478 56.3799 34.1801 58.8714 38.0271 60.4894C41.8741 62.107 46.1821 62.7863 50.4638 62.4502C54.746 62.1141 58.8302 60.7759 62.2556 58.5874L62.4452 69.9512Z" fill="#D0D0D0"/>
<path d="M88.0194 15.1083C86.9603 15.1083 86.1405 15.4791 85.5594 16.2205C84.9788 16.9564 84.6882 17.9843 84.6882 19.3044C84.6882 22.0512 85.7986 23.4246 88.0194 23.4246C88.9507 23.4246 90.0792 23.2083 91.4043 22.7758V24.9665C90.3154 25.3878 89.0994 25.5985 87.7557 25.5985C85.8255 25.5985 84.3493 25.0564 83.3269 23.9723C82.3041 22.8825 81.793 21.321 81.793 19.2875C81.793 18.0068 82.0439 16.8862 82.5463 15.9256C83.0486 14.9595 83.7686 14.2208 84.7063 13.7096C85.6504 13.1929 86.7544 12.9345 88.0194 12.9345C89.3078 12.9345 90.6026 13.2237 91.9037 13.8023L90.9958 15.9256C90.4998 15.7066 90.0009 15.5156 89.4985 15.3527C88.9962 15.1898 88.5031 15.1083 88.0194 15.1083ZM102.414 16.0099V17.9394H99.0918V25.4299H96.3237V17.9394H92.9925V16.0099H102.414ZM109.883 25.5985C108.691 25.5985 107.757 25.1968 107.079 24.3936H106.933C107.03 25.18 107.079 25.635 107.079 25.7585V29.5754H104.31V16.0099H106.562L106.952 17.2316H107.079C107.726 16.2992 108.685 15.8329 109.956 15.8329C111.154 15.8329 112.092 16.2627 112.769 17.1221C113.447 17.9816 113.786 19.1752 113.786 20.7031C113.786 21.7085 113.625 22.582 113.305 23.3235C112.99 24.0649 112.539 24.6295 111.952 25.0171C111.366 25.4046 110.676 25.5985 109.883 25.5985ZM109.066 17.8889C108.383 17.8889 107.884 18.0855 107.569 18.4787C107.254 18.8662 107.091 19.5094 107.079 20.4082V20.6862C107.079 21.6973 107.239 22.4219 107.56 22.8601C107.887 23.2982 108.401 23.5173 109.103 23.5173C110.343 23.5173 110.963 22.568 110.963 20.6694C110.963 19.7425 110.809 19.0488 110.5 18.5882C110.198 18.122 109.72 17.8889 109.066 17.8889ZM118.279 20.7031C118.279 21.6355 118.442 22.3405 118.769 22.8179C119.101 23.2954 119.64 23.5341 120.384 23.5341C121.123 23.5341 121.652 23.2982 121.973 22.8264C122.299 22.3489 122.463 21.6412 122.463 20.7031C122.463 19.7706 122.299 19.0713 121.973 18.605C121.646 18.1388 121.11 17.9057 120.366 17.9057C119.628 17.9057 119.096 18.1388 118.769 18.605C118.442 19.0656 118.279 19.765 118.279 20.7031ZM125.295 20.7031C125.295 22.2366 124.859 23.4358 123.988 24.3009C123.116 25.1659 121.903 25.5985 120.348 25.5985C119.374 25.5985 118.514 25.4019 117.77 25.0087C117.026 24.6098 116.454 24.0397 116.055 23.2982C115.656 22.5568 115.456 21.6917 115.456 20.7031C115.456 19.164 115.889 17.9675 116.754 17.1137C117.619 16.2599 118.835 15.8329 120.403 15.8329C121.376 15.8329 122.236 16.0296 122.98 16.4227C123.724 16.816 124.296 17.3805 124.695 18.1163C125.094 18.8522 125.295 19.7144 125.295 20.7031ZM130.259 16.0099V19.7341C130.259 20.1273 130.189 21.0879 130.05 22.6157L134.734 16.0099H138.064V25.4299H135.387V21.672C135.387 21.0036 135.447 20.0599 135.569 18.8409L130.903 25.4299H127.581V16.0099H130.259ZM149.373 16.0099V17.9394H146.051V25.4299H143.283V17.9394H139.952V16.0099H149.373ZM155.472 17.6614C154.885 17.6614 154.425 17.8355 154.093 18.1838C153.76 18.5264 153.569 19.0151 153.521 19.6498H157.405C157.393 19.0151 157.214 18.5264 156.87 18.1838C156.525 17.8355 156.059 17.6614 155.472 17.6614ZM155.862 25.5985C154.229 25.5985 152.952 25.18 152.032 24.343C151.113 23.506 150.653 22.3208 150.653 20.7873C150.653 19.2089 151.076 17.99 151.923 17.1305C152.776 16.2655 153.953 15.8329 155.454 15.8329C156.888 15.8329 158.004 16.2121 158.803 16.9704C159.602 17.7288 160.001 18.7764 160.001 20.1133V21.3603H153.457C153.488 22.0905 153.72 22.6607 154.156 23.0707C154.592 23.4808 155.203 23.6858 155.99 23.6858C156.601 23.6858 157.178 23.6268 157.723 23.5088C158.268 23.3909 158.837 23.2027 159.429 22.9443V24.9328C158.945 25.1575 158.428 25.3232 157.877 25.4299C157.327 25.5423 156.655 25.5985 155.862 25.5985ZM171.337 25.4299H168.569V17.9394H166.019C165.825 20.0459 165.589 21.6187 165.31 22.6578C165.032 23.6914 164.66 24.4413 164.194 24.9075C163.734 25.3681 163.129 25.5985 162.379 25.5985C161.738 25.5985 161.211 25.5086 160.8 25.3288V23.2729C161.096 23.3853 161.393 23.4415 161.689 23.4415C162.034 23.4415 162.322 23.2111 162.552 22.7505C162.787 22.2899 162.996 21.5232 163.178 20.4503C163.365 19.3718 163.526 17.8916 163.659 16.0099H171.337V25.4299ZM177.019 19.6498H178.97C180.531 19.6498 181.687 19.8801 182.437 20.3408C183.187 20.8014 183.563 21.4979 183.563 22.4303C183.563 24.4301 182.068 25.4299 179.079 25.4299H174.251V16.0099H177.019V19.6498ZM180.794 22.4641C180.794 22.0989 180.637 21.8349 180.322 21.672C180.007 21.5091 179.539 21.4277 178.916 21.4277H177.019V23.6521H178.952C180.18 23.6521 180.794 23.2561 180.794 22.4641Z" fill="#212D55"/>
<defs>
<linearGradient id="paint0_linear_2087_7" x1="69.3391" y1="21.4567" x2="26.5443" y2="67.5539" gradientUnits="userSpaceOnUse">
<stop stop-color="#212D55"/>
<stop offset="0.491587" stop-color="#212D55" stop-opacity="0.38"/>
<stop offset="1" stop-color="#212D55"/>
</linearGradient>
</defs>
</svg>
